<svg width="15" height="15" viewBox="0 0 15 15" fill="none" xmlns="http://www.w3.org/2000/svg">
<g id="language" opacity="0.85">
<path id="icon" d="M7.5 13.75C6.64583 13.75 5.83854 13.5859 5.07812 13.2578C4.31771 12.9297 3.65365 12.4818 3.08594 11.9141C2.51823 11.3464 2.07031 10.6823 1.74219 9.92188C1.41406 9.16146 1.25 8.35417 1.25 7.5C1.25 6.63542 1.41406 5.82552 1.74219 5.07031C2.07031 4.3151 2.51823 3.65365 3.08594 3.08594C3.65365 2.51823 4.31771 2.07031 5.07812 1.74219C5.83854 1.41406 6.64583 1.25 7.5 1.25C8.36458 1.25 9.17448 1.41406 9.92969 1.74219C10.6849 2.07031 11.3464 2.51823 11.9141 3.08594C12.4818 3.65365 12.9297 4.3151 13.2578 5.07031C13.5859 5.82552 13.75 6.63542 13.75 7.5C13.75 8.35417 13.5859 9.16146 13.2578 9.92188C12.9297 10.6823 12.4818 11.3464 11.9141 11.9141C11.3464 12.4818 10.6849 12.9297 9.92969 13.2578C9.17448 13.5859 8.36458 13.75 7.5 13.75ZM7.5 12.4688C7.77083 12.0938 8.00521 11.7031 8.20312 11.2969C8.40104 10.8906 8.5625 10.4583 8.6875 10H6.3125C6.4375 10.4583 6.59896 10.8906 6.79688 11.2969C6.99479 11.7031 7.22917 12.0938 7.5 12.4688ZM5.875 12.2188C5.6875 11.875 5.52344 11.5182 5.38281 11.1484C5.24219 10.7786 5.125 10.3958 5.03125 10H3.1875C3.48958 10.5208 3.86719 10.974 4.32031 11.3594C4.77344 11.7448 5.29167 12.0313 5.875 12.2188ZM9.125 12.2188C9.70833 12.0313 10.2266 11.7448 10.6797 11.3594C11.1328 10.974 11.5104 10.5208 11.8125 10H9.96875C9.875 10.3958 9.75781 10.7786 9.61719 11.1484C9.47656 11.5182 9.3125 11.875 9.125 12.2188ZM2.65625 8.75H4.78125C4.75 8.54167 4.72656 8.33594 4.71094 8.13281C4.69531 7.92969 4.6875 7.71875 4.6875 7.5C4.6875 7.28125 4.69531 7.07031 4.71094 6.86719C4.72656 6.66406 4.75 6.45833 4.78125 6.25H2.65625C2.60417 6.45833 2.5651 6.66406 2.53906 6.86719C2.51302 7.07031 2.5 7.28125 2.5 7.5C2.5 7.71875 2.51302 7.92969 2.53906 8.13281C2.5651 8.33594 2.60417 8.54167 2.65625 8.75ZM6.03125 8.75H8.96875C9 8.54167 9.02344 8.33594 9.03906 8.13281C9.05469 7.92969 9.0625 7.71875 9.0625 7.5C9.0625 7.28125 9.05469 7.07031 9.03906 6.86719C9.02344 6.66406 9 6.45833 8.96875 6.25H6.03125C6 6.45833 5.97656 6.66406 5.96094 6.86719C5.94531 7.07031 5.9375 7.28125 5.9375 7.5C5.9375 7.71875 5.94531 7.92969 5.96094 8.13281C5.97656 8.33594 6 8.54167 6.03125 8.75ZM10.2188 8.75H12.3438C12.3958 8.54167 12.4349 8.33594 12.4609 8.13281C12.487 7.92969 12.5 7.71875 12.5 7.5C12.5 7.28125 12.487 7.07031 12.4609 6.86719C12.4349 6.66406 12.3958 6.45833 12.3438 6.25H10.2188C10.25 6.45833 10.2734 6.66406 10.2891 6.86719C10.3047 7.07031 10.3125 7.28125 10.3125 7.5C10.3125 7.71875 10.3047 7.92969 10.2891 8.13281C10.2734 8.33594 10.25 8.54167 10.2188 8.75ZM9.96875 5H11.8125C11.5104 4.47917 11.1328 4.02604 10.6797 3.64062C10.2266 3.25521 9.70833 2.96875 9.125 2.78125C9.3125 3.125 9.47656 3.48177 9.61719 3.85156C9.75781 4.22135 9.875 4.60417 9.96875 5ZM6.3125 5H8.6875C8.5625 4.54167 8.40104 4.10938 8.20312 3.70312C8.00521 3.29688 7.77083 2.90625 7.5 2.53125C7.22917 2.90625 6.99479 3.29688 6.79688 3.70312C6.59896 4.10938 6.4375 4.54167 6.3125 5ZM3.1875 5H5.03125C5.125 4.60417 5.24219 4.22135 5.38281 3.85156C5.52344 3.48177 5.6875 3.125 5.875 2.78125C5.29167 2.96875 4.77344 3.25521 4.32031 3.64062C3.86719 4.02604 3.48958 4.47917 3.1875 5Z" fill="#1D1B20"/>
</g>
</svg>
